<mxfile host="65bd71144e">
    <diagram id="mk02AYsJPp0nEn53XiQN" name="ページ1">
        <mxGraphModel dx="1527" dy="800" grid="1" gridSize="10" guides="1" tooltips="1" connect="1" arrows="1" fold="1" page="1" pageScale="1" pageWidth="827" pageHeight="1169" math="0" shadow="0">
            <root>
                <mxCell id="0"/>
                <mxCell id="1" parent="0"/>
                <mxCell id="30" value="" style="group;fontStyle=4;verticalAlign=top;align=center;" parent="1" vertex="1" connectable="0">
                    <mxGeometry x="240" y="210" width="120" height="70" as="geometry"/>
                </mxCell>
                <mxCell id="17" value="" style="rounded=1;whiteSpace=wrap;html=1;container=0;" parent="30" vertex="1">
                    <mxGeometry width="120" height="70" as="geometry"/>
                </mxCell>
                <mxCell id="28" value="エンティティ&lt;br&gt;entity" style="text;strokeColor=none;align=center;fillColor=none;html=1;verticalAlign=middle;whiteSpace=wrap;rounded=0;fontStyle=5;container=0;" parent="30" vertex="1">
                    <mxGeometry x="23.076923076923094" y="10" width="73.84615384615385" height="30" as="geometry"/>
                </mxCell>
                <mxCell id="31" value="" style="group;fontStyle=0" parent="1" vertex="1" connectable="0">
                    <mxGeometry x="40" y="200" width="160" height="160" as="geometry"/>
                </mxCell>
                <mxCell id="13" value="a" style="rounded=0;whiteSpace=wrap;html=1;container=0;" parent="31" vertex="1">
                    <mxGeometry width="160" height="160" as="geometry"/>
                </mxCell>
                <mxCell id="14" value="集約" style="text;strokeColor=none;align=center;fillColor=none;html=1;verticalAlign=middle;whiteSpace=wrap;rounded=0;fontStyle=5;container=0;" parent="31" vertex="1">
                    <mxGeometry x="43.07692307692308" width="73.84615384615385" height="30" as="geometry"/>
                </mxCell>
                <mxCell id="32" value="" style="group;fontStyle=0" parent="1" vertex="1" connectable="0">
                    <mxGeometry x="440" y="200" width="160" height="160" as="geometry"/>
                </mxCell>
                <mxCell id="33" value="" style="rounded=0;whiteSpace=wrap;html=1;container=0;" parent="32" vertex="1">
                    <mxGeometry width="160" height="160" as="geometry"/>
                </mxCell>
                <mxCell id="34" value="会員集約" style="text;strokeColor=none;align=center;fillColor=none;html=1;verticalAlign=middle;whiteSpace=wrap;rounded=0;fontStyle=5;container=0;" parent="32" vertex="1">
                    <mxGeometry x="43.08" width="73.85" height="30" as="geometry"/>
                </mxCell>
                <mxCell id="69" value="" style="group" parent="32" vertex="1" connectable="0">
                    <mxGeometry x="20" y="50" width="120" height="70" as="geometry"/>
                </mxCell>
                <mxCell id="70" value="" style="rounded=1;whiteSpace=wrap;html=1;container=0;" parent="69" vertex="1">
                    <mxGeometry width="120" height="70" as="geometry"/>
                </mxCell>
                <mxCell id="71" value="&lt;u&gt;会員&lt;br&gt;(user)&lt;/u&gt;&lt;br&gt;&lt;span style=&quot;font-weight: normal;&quot;&gt;会員コード&lt;br&gt;ポイント残高&lt;br&gt;&lt;/span&gt;" style="text;strokeColor=none;align=center;fillColor=none;html=1;verticalAlign=middle;whiteSpace=wrap;rounded=0;fontStyle=1;container=0;" parent="69" vertex="1">
                    <mxGeometry x="10" y="20" width="100" height="30" as="geometry"/>
                </mxCell>
                <mxCell id="36" value="" style="group" parent="1" vertex="1" connectable="0">
                    <mxGeometry x="370" y="440" width="420" height="290" as="geometry"/>
                </mxCell>
                <mxCell id="37" value="" style="rounded=0;whiteSpace=wrap;html=1;container=0;" parent="36" vertex="1">
                    <mxGeometry width="420" height="290" as="geometry"/>
                </mxCell>
                <mxCell id="38" value="支払い集約" style="text;strokeColor=none;align=center;fillColor=none;html=1;verticalAlign=middle;whiteSpace=wrap;rounded=0;fontStyle=5;container=0;" parent="36" vertex="1">
                    <mxGeometry x="113.07000000000002" width="193.845" height="40" as="geometry"/>
                </mxCell>
                <mxCell id="41" value="" style="group" parent="36" vertex="1" connectable="0">
                    <mxGeometry x="120.00000000000001" y="50" width="180.00000000000003" height="80" as="geometry"/>
                </mxCell>
                <mxCell id="42" value="" style="rounded=1;whiteSpace=wrap;html=1;container=0;" parent="41" vertex="1">
                    <mxGeometry width="180.00000000000003" height="80" as="geometry"/>
                </mxCell>
                <mxCell id="43" value="支払い&lt;br&gt;(Payment)" style="text;strokeColor=none;align=center;fillColor=none;html=1;verticalAlign=middle;whiteSpace=wrap;rounded=0;fontStyle=5;container=0;" parent="41" vertex="1">
                    <mxGeometry x="34.61538461538465" y="-0.001428571428572667" width="110.7692307692308" height="34.285714285714285" as="geometry"/>
                </mxCell>
                <mxCell id="45" value="" style="group" parent="36" vertex="1" connectable="0">
                    <mxGeometry x="15.000000000000002" y="160" width="180.00000000000003" height="80" as="geometry"/>
                </mxCell>
                <mxCell id="46" value="" style="rounded=1;whiteSpace=wrap;html=1;container=0;" parent="45" vertex="1">
                    <mxGeometry width="180.00000000000003" height="80" as="geometry"/>
                </mxCell>
                <mxCell id="47" value="支払い方法明細&lt;br&gt;(PaymentDetailMethod)" style="text;strokeColor=none;align=center;fillColor=none;html=1;verticalAlign=middle;whiteSpace=wrap;rounded=0;fontStyle=5;container=0;" parent="45" vertex="1">
                    <mxGeometry width="180" height="34.29" as="geometry"/>
                </mxCell>
                <mxCell id="48" value="" style="group" parent="36" vertex="1" connectable="0">
                    <mxGeometry x="225.00000000000003" y="160" width="180.00000000000003" height="80" as="geometry"/>
                </mxCell>
                <mxCell id="49" value="" style="rounded=1;whiteSpace=wrap;html=1;container=0;" parent="48" vertex="1">
                    <mxGeometry width="180.00000000000003" height="80" as="geometry"/>
                </mxCell>
                <mxCell id="50" value="購入商品明細&lt;br&gt;(PaymentDetailItem)" style="text;strokeColor=none;align=center;fillColor=none;html=1;verticalAlign=middle;whiteSpace=wrap;rounded=0;fontStyle=5;container=0;" parent="48" vertex="1">
                    <mxGeometry width="170" height="34.29" as="geometry"/>
                </mxCell>
                <mxCell id="63" value="" style="group" parent="1" vertex="1" connectable="0">
                    <mxGeometry x="360" y="840" width="190" height="160" as="geometry"/>
                </mxCell>
                <mxCell id="64" value="" style="rounded=0;whiteSpace=wrap;html=1;container=0;" parent="63" vertex="1">
                    <mxGeometry width="190" height="160" as="geometry"/>
                </mxCell>
                <mxCell id="65" value="支払い方法集約" style="text;strokeColor=none;align=center;fillColor=none;html=1;verticalAlign=middle;whiteSpace=wrap;rounded=0;fontStyle=5;container=0;" parent="63" vertex="1">
                    <mxGeometry x="51.1575" width="87.69687499999999" height="30" as="geometry"/>
                </mxCell>
                <mxCell id="66" value="" style="group" parent="63" vertex="1" connectable="0">
                    <mxGeometry x="5" y="50" width="180.00000000000003" height="80" as="geometry"/>
                </mxCell>
                <mxCell id="67" value="" style="rounded=1;whiteSpace=wrap;html=1;container=0;" parent="66" vertex="1">
                    <mxGeometry width="180.00000000000003" height="80" as="geometry"/>
                </mxCell>
                <mxCell id="68" value="支払い方法&lt;br&gt;(PaymentMethod)" style="text;strokeColor=none;align=center;fillColor=none;html=1;verticalAlign=middle;whiteSpace=wrap;rounded=0;fontStyle=5;container=0;" parent="66" vertex="1">
                    <mxGeometry x="34.61538461538465" y="-0.001428571428572667" width="110.7692307692308" height="34.285714285714285" as="geometry"/>
                </mxCell>
                <mxCell id="72" value="" style="group" parent="1" vertex="1" connectable="0">
                    <mxGeometry x="-60" y="580" width="280" height="330" as="geometry"/>
                </mxCell>
                <mxCell id="73" value="" style="rounded=0;whiteSpace=wrap;html=1;container=0;" parent="72" vertex="1">
                    <mxGeometry width="280" height="330" as="geometry"/>
                </mxCell>
                <mxCell id="74" value="クーポン集約" style="text;strokeColor=none;align=center;fillColor=none;html=1;verticalAlign=middle;whiteSpace=wrap;rounded=0;fontStyle=5;container=0;" parent="72" vertex="1">
                    <mxGeometry x="75.38461538461539" width="129.23076923076925" height="61.875" as="geometry"/>
                </mxCell>
                <mxCell id="78" value="" style="group" parent="72" vertex="1" connectable="0">
                    <mxGeometry x="150" y="190" width="105" height="109.7316" as="geometry"/>
                </mxCell>
                <mxCell id="79" value="" style="rounded=1;whiteSpace=wrap;html=1;container=0;" parent="78" vertex="1">
                    <mxGeometry width="105.00000000000001" height="109.7316" as="geometry"/>
                </mxCell>
                <mxCell id="80" value="クーポン商品&lt;br&gt;(CouponItem)" style="text;strokeColor=none;align=center;fillColor=none;html=1;verticalAlign=middle;whiteSpace=wrap;rounded=0;fontStyle=5;container=0;" parent="78" vertex="1">
                    <mxGeometry x="10" y="15.68" width="90" height="47.03" as="geometry"/>
                </mxCell>
                <mxCell id="75" value="" style="group" parent="72" vertex="1" connectable="0">
                    <mxGeometry x="85" y="61.86840000000001" width="110" height="109.7316" as="geometry"/>
                </mxCell>
                <mxCell id="76" value="" style="rounded=1;whiteSpace=wrap;html=1;container=0;" parent="75" vertex="1">
                    <mxGeometry width="110" height="109.7316" as="geometry"/>
                </mxCell>
                <mxCell id="77" value="クーポン&lt;br&gt;(Coupon)" style="text;strokeColor=none;align=center;fillColor=none;html=1;verticalAlign=middle;whiteSpace=wrap;rounded=0;fontStyle=5;container=0;" parent="75" vertex="1">
                    <mxGeometry x="21.153846153846168" y="15.675942857142857" width="67.69230769230771" height="47.02782857142857" as="geometry"/>
                </mxCell>
                <mxCell id="81" value="" style="group" parent="72" vertex="1" connectable="0">
                    <mxGeometry x="20" y="190" width="105" height="109.7316" as="geometry"/>
                </mxCell>
                <mxCell id="82" value="" style="rounded=1;whiteSpace=wrap;html=1;container=0;" parent="81" vertex="1">
                    <mxGeometry width="105.00000000000001" height="109.7316" as="geometry"/>
                </mxCell>
                <mxCell id="83" value="クーポン店舗&lt;br&gt;(CouponShop)" style="text;strokeColor=none;align=center;fillColor=none;html=1;verticalAlign=middle;whiteSpace=wrap;rounded=0;fontStyle=5;container=0;" parent="81" vertex="1">
                    <mxGeometry x="10" y="15.68" width="90" height="47.03" as="geometry"/>
                </mxCell>
                <mxCell id="84" value="" style="group" parent="1" vertex="1" connectable="0">
                    <mxGeometry x="70" y="970" width="160" height="160" as="geometry"/>
                </mxCell>
                <mxCell id="85" value="" style="rounded=0;whiteSpace=wrap;html=1;container=0;" parent="84" vertex="1">
                    <mxGeometry width="160" height="160" as="geometry"/>
                </mxCell>
                <mxCell id="86" value="クーポン配布集約" style="text;strokeColor=none;align=center;fillColor=none;html=1;verticalAlign=middle;whiteSpace=wrap;rounded=0;fontStyle=5;container=0;" parent="84" vertex="1">
                    <mxGeometry x="30" width="100" height="30" as="geometry"/>
                </mxCell>
                <mxCell id="87" value="" style="group" parent="84" vertex="1" connectable="0">
                    <mxGeometry x="20" y="50" width="120" height="70" as="geometry"/>
                </mxCell>
                <mxCell id="88" value="" style="rounded=1;whiteSpace=wrap;html=1;container=0;" parent="87" vertex="1">
                    <mxGeometry width="120" height="70" as="geometry"/>
                </mxCell>
                <mxCell id="89" value="クーポン配布&lt;br&gt;(CouponDistribution)" style="text;strokeColor=none;align=center;fillColor=none;html=1;verticalAlign=middle;whiteSpace=wrap;rounded=0;fontStyle=5;container=0;" parent="87" vertex="1">
                    <mxGeometry x="23.076923076923094" y="10" width="73.84615384615385" height="30" as="geometry"/>
                </mxCell>
                <mxCell id="90" value="" style="group" parent="1" vertex="1" connectable="0">
                    <mxGeometry x="-130" y="970" width="160" height="160" as="geometry"/>
                </mxCell>
                <mxCell id="91" value="" style="rounded=0;whiteSpace=wrap;html=1;container=0;" parent="90" vertex="1">
                    <mxGeometry width="160" height="160" as="geometry"/>
                </mxCell>
                <mxCell id="92" value="クーポン利用集約" style="text;strokeColor=none;align=center;fillColor=none;html=1;verticalAlign=middle;whiteSpace=wrap;rounded=0;fontStyle=5;container=0;" parent="90" vertex="1">
                    <mxGeometry x="30" width="100" height="30" as="geometry"/>
                </mxCell>
                <mxCell id="93" value="" style="group" parent="90" vertex="1" connectable="0">
                    <mxGeometry x="20" y="50" width="120" height="70" as="geometry"/>
                </mxCell>
                <mxCell id="94" value="" style="rounded=1;whiteSpace=wrap;html=1;container=0;" parent="93" vertex="1">
                    <mxGeometry width="120" height="70" as="geometry"/>
                </mxCell>
                <mxCell id="95" value="クーポン利用&lt;br&gt;(CouponApply)" style="text;strokeColor=none;align=center;fillColor=none;html=1;verticalAlign=middle;whiteSpace=wrap;rounded=0;fontStyle=5;container=0;" parent="93" vertex="1">
                    <mxGeometry x="23.076923076923094" y="10" width="73.84615384615385" height="30" as="geometry"/>
                </mxCell>
                <mxCell id="96" value="" style="group" parent="1" vertex="1" connectable="0">
                    <mxGeometry x="890" y="840" width="160" height="160" as="geometry"/>
                </mxCell>
                <mxCell id="97" value="" style="rounded=0;whiteSpace=wrap;html=1;container=0;" parent="96" vertex="1">
                    <mxGeometry width="160" height="160" as="geometry"/>
                </mxCell>
                <mxCell id="98" value="ポイント設定集約" style="text;strokeColor=none;align=center;fillColor=none;html=1;verticalAlign=middle;whiteSpace=wrap;rounded=0;fontStyle=5;container=0;" parent="96" vertex="1">
                    <mxGeometry x="30" width="100" height="30" as="geometry"/>
                </mxCell>
                <mxCell id="99" value="" style="group" parent="96" vertex="1" connectable="0">
                    <mxGeometry x="20" y="50" width="120" height="70" as="geometry"/>
                </mxCell>
                <mxCell id="100" value="" style="rounded=1;whiteSpace=wrap;html=1;container=0;" parent="99" vertex="1">
                    <mxGeometry width="120" height="70" as="geometry"/>
                </mxCell>
                <mxCell id="101" value="ポイント設定&lt;br&gt;(PointSetting)" style="text;strokeColor=none;align=center;fillColor=none;html=1;verticalAlign=middle;whiteSpace=wrap;rounded=0;fontStyle=5;container=0;" parent="99" vertex="1">
                    <mxGeometry x="23.076923076923094" y="10" width="73.84615384615385" height="30" as="geometry"/>
                </mxCell>
                <mxCell id="102" value="" style="endArrow=classic;html=1;" parent="1" edge="1">
                    <mxGeometry relative="1" as="geometry">
                        <mxPoint x="-98" y="250" as="sourcePoint"/>
                        <mxPoint x="2" y="250" as="targetPoint"/>
                    </mxGeometry>
                </mxCell>
                <mxCell id="103" value="0..n - 1" style="edgeLabel;resizable=0;html=1;align=center;verticalAlign=middle;" parent="102" connectable="0" vertex="1">
                    <mxGeometry relative="1" as="geometry"/>
                </mxCell>
                <mxCell id="105" value="1 - 1..n" style="endArrow=none;startArrow=diamondThin;endFill=0;startFill=1;html=1;verticalAlign=bottom;labelBackgroundColor=none;strokeWidth=1;startSize=8;endSize=8;" parent="1" edge="1">
                    <mxGeometry width="160" relative="1" as="geometry">
                        <mxPoint x="15" y="300" as="sourcePoint"/>
                        <mxPoint x="-115" y="300" as="targetPoint"/>
                    </mxGeometry>
                </mxCell>
            </root>
        </mxGraphModel>
    </diagram>
</mxfile>